<?xml version="1.0" standalone="no"?>
<svg version="1.0" xmlns="http://www.w3.org/2000/svg"
 width="106.000000pt" height="102.000000pt" viewBox="0 0 106.000000 102.000000"
 preserveAspectRatio="xMidYMid meet">

<g transform="translate(0.000000,102.000000) scale(0.100000,-0.100000)"
fill="#000000" stroke="none">
<path d="M100 505 l0 -415 415 0 415 0 0 115 0 115 -40 0 -40 0 0 -75 0 -75
-335 0 -335 0 0 335 0 335 335 0 335 0 0 -70 0 -70 40 0 40 0 0 110 0 110
-415 0 -415 0 0 -415z"/>
<path d="M360 505 c0 -88 1 -95 20 -95 17 0 20 7 20 40 l0 40 40 0 c29 0 40 4
40 15 0 11 -11 15 -40 15 -36 0 -40 3 -40 25 0 23 4 25 45 25 33 0 45 4 45 15
0 12 -14 15 -65 15 l-65 0 0 -95z"/>
<path d="M530 505 l0 -95 50 0 c28 0 64 7 79 15 55 28 64 104 19 153 -18 18
-32 22 -85 22 l-63 0 0 -95z m110 47 c25 -20 30 -63 10 -87 -7 -8 -28 -15 -46
-15 l-34 0 0 60 c0 57 1 60 24 60 13 0 34 -8 46 -18z"/>
<path d="M750 505 c0 -88 1 -95 20 -95 18 0 20 7 20 62 l0 62 46 -62 c34 -46
52 -62 70 -62 24 0 24 1 24 95 0 94 0 95 -25 95 -22 0 -24 -4 -27 -57 l-3 -57
-43 57 c-26 36 -50 57 -62 57 -19 0 -20 -7 -20 -95z"/>
</g>
</svg>
